<svg width="277" height="169" viewBox="0 0 277 169" fill="none" xmlns="http://www.w3.org/2000/svg">
<g clip-path="url(#clip0_5014_2245)">
<path d="M56.2874 7.11735L0 83.4456H41.301L93.5038 12.6522L80.2658 3.07492C72.6403 -1.82238 61.9 -1.11241 56.2874 7.11735ZM185.832 0.0756866L169.626 22.5337L196.514 41.9924L226.751 0.0756866H185.832V0.0756866ZM113.824 66.0732L138.963 84.0396C148.763 91.5159 160.105 91.458 165.556 84.9234L169.817 79.0119L126.93 48.3386L113.824 66.0732Z" fill="#AAB4C2"/>
<path d="M236.087 0.0725889L198.459 52.2331L130.52 3.05733C122.895 -1.83996 112.14 -1.13 106.542 7.11426L50.2544 83.4424H92.0402L125.334 38.3961L189.203 84.0365C199.003 91.5273 210.345 91.4549 215.811 84.9203L276.991 0.0870779H236.087V0.0725889Z" fill="#AAB4C2"/>
<path d="M19.7982 140.398H9.92476V158.162H3.60693V114.391H19.0195C27.1445 114.391 31.7874 119.375 31.7874 126.33V129.054C31.7874 135.298 27.3208 140.398 19.7982 140.398ZM25.2198 126.214C25.2198 122.229 22.8102 119.563 19.1958 119.563H9.92476V135.298H19.6954C23.4861 135.298 25.2198 132.618 25.2198 129.242V126.214Z" fill="#AAB4C2"/>
<path d="M61.0933 158.162V119.331H43.4328V158.162H37.0562V114.391H67.4552V158.162H61.0933Z" fill="#AAB4C2"/>
<path d="M155.27 158.162V138.442H137.316V158.162H130.939V114.391H137.316V133.516H155.27V114.391H161.647V158.162H155.27Z" fill="#AAB4C2"/>
<path d="M184.353 158.872C174.67 158.872 168.396 152.048 168.396 142.485V140.356C168.396 131.025 174.773 124.026 184.353 124.026C196.033 124.026 200.559 131.691 200.559 140.356V142.485C200.559 151.99 194.167 158.872 184.353 158.872ZM194.358 141.181C194.358 133.995 191.655 129.069 184.544 129.069C178.108 129.069 174.729 133.531 174.729 141.181V141.66C174.729 149.498 178.152 154.062 184.353 154.062C190.788 154.062 194.358 150.092 194.358 141.66V141.181V141.181Z" fill="#AAB4C2"/>
<path d="M222.16 158.582C217.767 158.582 214.329 156.495 213.256 154.539V168.999H207.056V125.083H212.845L213.138 129.415C214.284 126.807 218.266 124.127 222.351 124.127C232.239 124.127 236.147 130.893 236.147 138.862V142.716C236.132 153.177 230.652 158.582 222.16 158.582ZM229.697 140.05C229.697 132.806 226.567 129.126 221.263 129.126C218.678 129.126 215.239 130.198 213.315 133.936V147.947C213.315 150.207 216.209 153.945 221.263 153.945C226.391 153.945 229.697 150.207 229.697 142.238V140.05Z" fill="#AAB4C2"/>
<path d="M244.689 146.99L248.186 125.083H270.681V153.525H274.192V168.999H269.02V158.161H243.367V168.999H238.181V153.525H239.988C241.692 153.409 243.852 151.989 244.689 146.99ZM248.789 153.525H264.363V129.719H253.784L250.831 148.063C250.478 150.323 249.758 152.105 248.789 153.525Z" fill="#AAB4C2"/>
<path d="M104.034 158.162L89.312 137.906L83.5231 144.557V158.162H77.1318V114.391H83.5231V136.544L101.433 114.391H108.31L93.2937 133.096L111.571 158.162H104.034Z" fill="#AAB4C2"/>
</g>
<defs>
<clipPath id="clip0_5014_2245">
<rect width="277" height="169" fill="white"/>
</clipPath>
</defs>
</svg>
