<svg width="247" height="137" viewBox="0 0 247 137" fill="none" xmlns="http://www.w3.org/2000/svg">
<g clip-path="url(#clip0_5014_2288)">
<path d="M208.501 23.0829C186.781 11.2099 156.727 3.86498 123.5 3.86498C90.2728 3.86498 60.2187 11.2099 38.4956 23.0829C17.0794 34.7884 3.82636 50.8544 3.82636 68.5C3.82636 86.1456 17.0758 102.215 38.4956 113.921C60.2152 125.794 90.2692 133.139 123.5 133.139C156.727 133.139 186.781 125.794 208.501 113.921C229.921 102.215 243.17 86.1491 243.17 68.5C243.17 50.8509 229.921 34.7884 208.501 23.0829ZM123.5 0C157.409 0 188.152 7.55882 210.435 19.7813C233.026 32.1678 247 49.389 247 68.5C247 87.6145 233.026 104.832 210.435 117.222C188.152 129.441 157.409 137 123.5 137C89.591 137 58.8481 129.441 36.5646 117.222C13.9741 104.832 0 87.6145 0 68.5C0 49.389 13.9741 32.1678 36.5646 19.7813C58.8517 7.55882 89.591 0 123.5 0Z" fill="#BCC4CF"/>
<path fill-rule="evenodd" clip-rule="evenodd" d="M35.9458 68.4004L38.9726 59.9395H42.881L38.1659 72.6825C37.4913 74.5473 36.7489 75.9699 35.9351 76.9504C35.1212 77.9309 33.9898 78.398 32.5442 78.3481C31.7875 78.2661 31.2235 78.1555 30.8523 78.02V75.05C31.2378 75.1498 31.5697 75.1997 31.8339 75.1997C32.4228 75.1997 32.8833 75.0179 33.2223 74.6471C33.5579 74.2763 33.8613 73.6808 34.129 72.8608L27.6256 59.9395H31.7875L35.9458 68.4004ZM49.4844 69.0029H51.2262C52.2685 69.0029 53.0752 68.7676 53.6463 68.297C54.2173 67.8263 54.5136 67.0811 54.5279 66.0543C54.6135 63.9542 53.5035 62.906 51.2012 62.906H49.4844V69.0029ZM49.4844 72.0764V77.9202H45.5259V59.9395H51.0727C53.6284 59.9395 55.5987 60.3923 56.9836 61.2979C58.3721 62.2036 59.0396 63.8152 58.9896 66.1327C58.9396 70.094 56.491 72.0764 51.651 72.0764H49.4844V72.0764ZM72.8316 62.9345H65.8749V77.9202H61.9415V59.9395H72.8352V62.9345H72.8316ZM82.3368 68.4004L85.3636 59.9395H89.2721L84.5569 72.6825C83.8859 74.5473 83.1435 75.9699 82.3261 76.9504C81.5087 77.9309 80.3808 78.398 78.9352 78.3481C78.1821 78.2661 77.6181 78.1555 77.2469 78.02V75.05C77.6324 75.1498 77.9608 75.1997 78.2285 75.1997C78.8174 75.1997 79.2779 75.0179 79.6169 74.6471C79.9525 74.2763 80.2559 73.6808 80.5236 72.8608L74.0202 59.9395H78.1821L82.3368 68.4004ZM98.9558 62.9095V77.9202H95.0223V62.9095H90.4357V59.9359H103.546V62.9095H98.9558ZM110.124 69.659V77.9202H106.191V59.9395H110.124V66.664H116.681V59.9395H120.615V77.9202H116.681V69.659H110.124ZM135.895 62.9345H128.71V67.1631H134.735V70.3115H128.71V74.9965H136.802V77.9166H124.752V59.9359H135.895V62.9345ZM150.594 63.6868V72.3509C152.093 72.4508 153.182 72.1726 153.874 71.5095C154.563 70.8463 154.909 69.6732 154.909 67.9975C154.906 64.9561 153.467 63.5228 150.594 63.6868ZM146.71 63.7153C143.969 63.4657 142.602 64.8884 142.602 67.9975C142.602 69.6768 142.927 70.8499 143.573 71.5095C144.219 72.1726 145.265 72.4543 146.71 72.3509V63.7153V63.7153ZM146.71 77.9202V75.2746C146.61 75.2746 146.521 75.2675 146.446 75.2639C146.371 75.2532 146.264 75.2497 146.132 75.2497C144.587 75.214 143.462 75.0642 142.752 74.7968C141.56 74.344 140.585 73.5097 139.829 72.3046C139.072 71.0959 138.694 69.6483 138.694 67.9725C138.694 66.9136 138.897 65.8332 139.3 64.7244C139.704 63.6155 140.5 62.6564 141.695 61.8541C142.888 61.0483 144.562 60.6847 146.714 60.7702V58.6523H150.597V60.7702C152.817 60.6847 154.534 61.0483 155.755 61.8541C156.972 62.6599 157.786 63.6155 158.189 64.7244C158.593 65.8332 158.796 66.9136 158.796 67.9725C158.796 69.6376 158.411 71.078 157.647 72.3046C156.883 73.5311 155.88 74.3618 154.634 74.7968C153.913 75.0642 152.764 75.214 151.183 75.2497C151.047 75.2497 150.944 75.2532 150.869 75.2639C150.794 75.271 150.704 75.2746 150.604 75.2746V77.9202H146.71ZM168.922 62.9095V77.9202H164.989V62.9095H160.402V59.9359H173.513V62.9095H168.922ZM187.305 62.9345H180.12V67.1631H186.145V70.3115H180.12V74.9965H188.215V77.9166H176.161V59.9359H187.305V62.9345ZM202.053 62.9345H195.097V77.9202H191.163V59.9395H202.053V62.9345ZM209.745 71.1422H214.107L211.862 65.4767L209.745 71.1422ZM208.585 74.2157L207.2 77.9166H203.242L210.024 59.9359H213.729L220.639 77.9166H216.681L215.167 74.1372L208.585 74.2157ZM224.369 64.0398L222.631 61.5725C224.412 60.214 226.528 59.5223 228.984 59.5081C230.448 59.4902 231.647 59.7113 232.589 60.1748C233.532 60.6383 234.224 61.2231 234.67 61.9397C235.113 62.6528 235.38 63.398 235.463 64.1681C235.513 64.7885 235.448 65.3982 235.263 65.9937C235.077 66.5891 234.738 67.1061 234.242 67.5411C233.746 67.9761 233.121 68.2649 232.361 68.3968V68.6713C233.371 68.7569 234.238 69.1491 234.959 69.8551C235.684 70.561 236.044 71.4916 236.044 72.6504C236.044 73.6095 235.777 74.5116 235.238 75.3566C234.699 76.2052 233.885 76.904 232.793 77.4496C231.7 77.9951 230.373 78.291 228.809 78.3445C226.357 78.4122 224.019 77.5387 221.799 75.7239L223.691 73.3065C223.776 73.3243 223.848 73.3564 223.905 73.4063C223.962 73.4562 224.026 73.5061 224.094 73.5596C224.248 73.6416 224.437 73.7593 224.662 73.9126C224.887 74.0623 225.154 74.2228 225.454 74.3904C226.6 74.9608 227.735 75.1819 228.859 75.0464C229.752 74.9288 230.444 74.59 230.94 74.0267C231.436 73.4633 231.658 72.8394 231.608 72.1513C231.558 70.7892 230.64 70.1118 228.859 70.1118H227.121V67.0883H228.556C229.648 67.0883 230.383 66.8423 230.762 66.3467C231.136 65.851 231.276 65.3198 231.176 64.7457C231.09 64.1574 230.787 63.6761 230.266 63.2982C229.744 62.9202 229.056 62.7313 228.199 62.7313C227.06 62.7313 225.782 63.1698 224.369 64.0398ZM25.7588 62.0289L23.8171 64.3963C22.4215 63.1698 21.0258 62.6492 19.6338 62.8347C19.1126 62.9024 18.538 63.1128 17.9062 63.4622C17.2744 63.8152 16.7247 64.4391 16.2536 65.3412C15.7824 66.2361 15.5576 67.4413 15.5718 68.953C15.6218 71.0531 16.0573 72.5256 16.8818 73.3742C17.7063 74.2228 18.6129 74.722 19.6052 74.8717C21.1686 75.1249 22.6784 74.4296 24.1455 72.7823L26.3121 74.697C24.3311 77.1322 21.9753 78.3481 19.2554 78.3481C17.6563 78.3481 16.2286 77.9523 14.9686 77.1643C13.7086 76.3763 12.7163 75.2532 11.9953 73.8021C11.2708 72.3474 10.921 70.75 10.9352 69.0029C10.9852 65.8653 11.9025 63.4943 13.6836 61.9005C15.4648 60.3067 17.4993 59.5081 19.7837 59.5081C20.9937 59.5081 22.1109 59.7291 23.1389 60.1748C24.1597 60.6205 25.0342 61.2373 25.7588 62.0289Z" fill="#BCC4CF"/>
<path fill-rule="evenodd" clip-rule="evenodd" d="M187.941 85.6749C171.479 110.116 126.088 122.235 95.9695 126.649C90.4798 125.958 88.8414 125.755 83.6694 124.934C101.945 118.88 144.07 108.098 151.712 85.6749H187.941V85.6749ZM143.956 24.2061C158.755 28.3884 177.015 35.3232 187.649 51.3679H144.181C143.588 50.6156 142.978 49.8668 142.353 49.1323L142.343 49.1145L142.328 49.1002L142.314 49.0824L141.807 48.4691H141.804L141.632 48.2659L141.629 48.2624C141.165 47.7168 140.697 47.1713 140.219 46.6365L140.215 46.6329L140.037 46.4333L139.676 46.0339L139.673 46.0304L138.941 45.2388L138.937 45.2353L138.384 44.647L138.381 44.6434L137.635 43.8661H137.631L137.445 43.6736H137.442L137.064 43.2885H137.06L136.489 42.718L136.103 42.3401H136.1L135.907 42.1511L135.904 42.1476L135.518 41.7767H135.514L135.322 41.5913H135.318L135.125 41.4059H135.122L134.733 41.0387L134.536 40.8533H134.533L134.337 40.6714L134.14 40.4896L133.969 40.3327H133.965L133.798 40.1758H133.794L133.626 40.019L133.455 39.8621H133.451L133.284 39.7052L133.112 39.5483H133.109L132.937 39.3914L132.766 39.2381H132.762L132.591 39.0812L132.248 38.7746L132.077 38.6213H132.074L131.906 38.468L131.734 38.3147H131.731L131.56 38.1613L131.221 37.8583H131.217L131.046 37.7085L130.878 37.5588L130.707 37.409H130.703L130.364 37.1131L130.196 36.9669H130.193L130.025 36.8207H130.021L129.686 36.5284L129.011 35.9543C128.676 35.6726 128.34 35.3945 128.008 35.12H128.005C127.673 34.8454 127.341 34.5816 127.009 34.3213H127.005L126.969 34.168C131.085 31.066 138.984 26.4987 143.956 24.2061Z" fill="#BCC4CF"/>
<path fill-rule="evenodd" clip-rule="evenodd" d="M192.402 85.6715C178.26 110.273 134.96 123.972 108.879 127.93C113.822 128.119 118.12 128.479 123.895 128.479C156.005 128.461 184.731 121.576 205.705 110.501C219.786 102.878 228.42 94.7028 233.628 85.6857L192.402 85.6715ZM149.238 21.6711C168.048 28.3813 182.229 35.3447 192.481 51.368L233.557 51.2467C221.528 30.2496 193.558 19.2287 170.315 13.7236C166.196 14.8539 150.997 20.7583 149.238 21.6711Z" fill="#BCC4CF"/>
<path fill-rule="evenodd" clip-rule="evenodd" d="M59.0781 85.6753C67.5911 97.9691 80.8584 106.038 96.8313 110.801C99.5333 111.607 104.077 112.477 106.765 113.001C111.123 111.931 121.353 107.881 128.053 104.127L123.955 104.308H123.951H123.941H123.937H123.926H123.916H123.905H123.901H123.891H123.88H123.869H123.866H123.855H123.851H123.841H123.837H123.826H123.816H123.812H123.801H123.798H123.787H123.784H123.773H123.762H123.751H123.748H123.737H123.734H123.723H123.719H123.709H123.698H123.694H123.684H123.673H123.662H123.652H123.648H123.637H123.634H123.623H123.612H123.609H123.598H123.594H123.584H123.58H123.569H123.566H123.555H123.552H123.541H123.53H123.527H123.516H123.512H123.502H123.491H123.512H123.502H123.498H123.487H123.477H123.466H123.462H123.452H123.448H123.437H123.427H123.423H123.412H123.409H123.398H123.395H123.384H123.38H123.37H123.359H123.355H123.345H123.334H123.323H123.32H123.309H123.305H123.295H123.291H123.28H123.27H123.259H123.248H123.245H123.234H123.223H123.212H123.209H123.198H123.195H123.184H123.173H123.162H123.159H123.148H123.138H123.127H123.123H123.113H123.109H123.098L123.088 104.305H123.077H123.066H123.063H123.052H123.048H123.038H123.027H123.016H123.013H123.002H122.998H122.988H122.984L122.973 104.301H122.963H122.948H122.938H122.927H122.916H122.913H122.902H122.898H122.888H122.884L122.873 104.298H122.863H122.852H122.848H122.838H122.834H122.823H122.82H122.809H122.806H122.795L122.784 104.294H122.781H122.77H122.759H122.748H122.745H122.734H122.731H122.72H122.716L122.706 104.291H122.695H122.684H122.681H122.67H122.666H122.656H122.645L122.634 104.287H122.631H122.62H122.616H122.606H122.602H122.591H122.581L122.57 104.284H122.566H122.556H122.552H122.541H122.531H122.52H122.516H122.506H122.495H122.491H122.481L122.47 104.28H122.459H122.456H122.445H122.434H122.431L122.42 104.276H122.409H122.406H122.395H122.392H122.381H122.377H122.367L122.356 104.273H122.345H122.334H122.331H122.32H122.317L122.306 104.269H122.295H122.284H122.274H122.27L122.259 104.266H122.256H122.245H122.234H122.224H122.22H122.209H122.206H122.195H122.192L122.181 104.262H122.17H122.159L122.149 104.259H122.145H122.135H122.124H122.113H122.11H122.099H122.095H122.085H122.081H122.07L122.06 104.255H122.049H122.085L122.074 104.251H122.07H122.06H122.056H122.045H122.042H122.031L122.02 104.248H122.01H122.006H121.995L121.985 104.244H121.981L121.621 104.226H121.617L121.256 104.202L120.892 104.173L120.532 104.141H120.528L120.171 104.105H120.168L119.814 104.066H119.811L119.457 104.023H119.454L119.101 103.977H119.093C112.419 103.089 106.187 100.29 101.703 95.8654C98.7837 93.0237 96.5457 89.469 95.1323 85.6432H59.0781V85.6753ZM151.171 10.4365C107.978 16.6512 72.3169 31.5584 59.3173 51.3682H102.953L103.088 51.1864L103.413 50.7657L103.417 50.7621L103.742 50.3414H103.745L103.909 50.131H103.913L104.413 49.5035H104.416C104.695 49.1576 104.98 48.8118 105.266 48.4695V48.4659L105.437 48.2627L105.441 48.2591C105.901 47.7136 106.372 47.1681 106.851 46.6333H106.854L107.033 46.4336L107.036 46.43L107.397 46.0307H107.4L108.132 45.2356H108.135L108.689 44.6437H108.692C108.939 44.3835 109.188 44.1232 109.438 43.8665L109.442 43.8629L109.627 43.6704H109.631L110.009 43.2853L110.584 42.7113H110.588L110.97 42.3333H110.973L111.166 42.1479V42.1443L111.169 42.1408L111.555 41.77H111.558L111.751 41.5846H111.755L111.948 41.3992H111.951L112.23 41.1353C113.843 39.5665 115.538 38.044 117.294 36.5679L117.716 36.2185L118.037 35.9475H118.04C118.376 35.6623 118.711 35.3878 119.043 35.1132H119.047C119.379 34.8422 119.711 34.5748 120.043 34.3145H120.046C121.089 33.4909 122.113 32.7315 123.105 32.0576C136.201 22.5948 151.867 15.6243 163.628 12.1301L163.15 12.0089C159.834 11.417 154.573 10.8893 151.171 10.4365Z" fill="#BCC4CF"/>
<path fill-rule="evenodd" clip-rule="evenodd" d="M54.5495 51.3782C69.7193 25.6283 114.158 13.2846 138.255 9.17363C132.708 8.7422 128.899 8.51758 123.124 8.51758C91.0141 8.53897 61.9845 15.4203 41.0109 26.4983C28.6823 33.4581 18.8916 41.9368 13.384 51.3176L54.5495 51.3782ZM88.8654 111.963C74.2417 106.012 62.7341 99.2198 54.5638 85.6746H13.4768C25.2629 106.19 53.4573 117.653 76.5832 123.397C81.0199 122.203 96.1076 117.258 100.684 115.371C96.718 114.555 92.6061 113.485 88.8654 111.963Z" fill="#BCC4CF"/>
</g>
<defs>
<clipPath id="clip0_5014_2288">
<rect width="247" height="137" fill="white"/>
</clipPath>
</defs>
</svg>
