<svg width="405" height="117" viewBox="-86.79 -25.07 578.57 167.14" fill="none" xmlns="http://www.w3.org/2000/svg">
<path d="M169.604 113.098C171.147 113.93 170.846 116.375 169.143 116.731C168.414 116.884 167.669 116.951 166.917 116.958C158.008 117.015 149.097 117.015 140.188 116.951C138.188 116.937 136.187 116.628 134.193 116.379C131.294 116.02 129.379 114.136 128.212 111.563C126.804 108.463 125.726 105.2 124.42 102.047C123.969 100.96 123.319 99.9468 122.669 98.9658C122.153 98.1838 121.366 98.2229 120.843 98.8876C120.149 99.7691 119.492 100.739 119.055 101.777C117.762 104.831 116.668 107.98 115.334 111.015C113.583 115.007 110.362 116.663 106.268 116.706C96.3341 116.802 86.4033 116.926 76.4691 116.955C74.2668 116.962 72.1432 116.414 70.3068 114.975C68.1968 113.318 66.976 111.122 67.7454 108.47C68.9013 104.486 70.2384 100.523 71.8901 96.7301C75.6825 88.0147 79.7383 79.4201 83.6265 70.7438C84.5293 68.7285 85.2337 66.61 85.9279 64.5023C86.2528 63.507 85.6954 62.6398 84.6866 62.59C82.4022 62.4834 80.1008 62.6611 77.8233 62.4763C75.7509 62.3092 73.6239 62.0711 71.6541 61.4313C64.1 58.9787 61.5592 50.2918 66.3707 43.7303C69.298 39.7387 73.0562 36.7459 77.3 34.4995C81.9508 32.0399 86.776 29.9321 91.4884 27.5969C93.824 26.4381 96.1015 25.1479 98.3585 23.8363C99.8256 22.9868 100.913 21.5864 101.429 19.9265C102.756 15.6576 104.589 11.6447 107.222 8.06895C113.056 0.14618 122.231 -2.07177 130.681 1.99092C134.758 3.95295 137.531 7.43627 139.641 11.4527C140.835 13.724 142.049 16.0699 142.715 18.5402C143.731 22.3186 145.981 24.7604 149.237 26.3457C152.793 28.0767 156.408 29.6762 159.992 31.3468C160.382 31.528 160.768 31.72 161.165 31.919C161.903 32.2887 162.02 33.3195 161.397 33.8704C148.625 45.1805 142.592 59.4372 144.777 76.9605C146.874 93.7515 155.591 105.538 169.604 113.098ZM122.597 35.7791C126.297 35.8004 129.909 34.7021 132.2 32.9711C133.626 31.8941 134.105 30.0921 133.373 28.5566C132.826 27.4085 131.461 26.9642 129.98 27.4938C129.608 27.6253 129.273 27.8812 128.927 28.0909C125.624 30.0778 122.207 30.7781 118.572 29.0862C117.471 28.5743 116.373 28.0554 115.255 27.5933C113.911 27.0353 112.489 27.3872 111.856 28.3717C111.155 29.4629 111.408 30.842 112.537 31.983C112.82 32.2709 113.145 32.5268 113.474 32.7579C116.332 34.7839 119.561 35.5587 122.597 35.7791Z" fill="#BCC4CF"/>
<path d="M205.963 83.0385C202.615 83.0385 199.404 83.0563 196.193 83.0314C194.418 83.0172 192.728 82.612 191.278 81.4675C188.775 79.4912 187.862 76.2638 188.857 72.9689C189.722 70.1076 192.465 67.9963 195.632 67.9643C201.541 67.9038 207.45 67.8932 213.359 67.9643C217.562 68.014 220.613 71.2947 220.65 75.8053C220.712 83.1096 220.719 90.4175 220.64 97.7218C220.609 100.516 219.385 102.684 217.145 104.429C203.76 114.854 185.277 115.405 171.499 105.68C153.474 92.9553 148.676 67.4951 160.795 48.8629C173.776 28.9084 200.282 24.7995 218.243 39.952C221.197 42.4472 221.724 47.2101 219.388 50.3628C216.93 53.6827 212.46 54.4575 209.358 51.9268C206.034 49.2148 202.495 47.0572 198.279 46.2824C183.208 43.5099 172.952 53.736 169.755 64.0437C165.35 78.2507 174.563 94.4944 188.611 97.1069C194.243 98.1554 199.759 97.6365 204.916 94.7396C205.672 94.3166 206 93.851 205.98 92.9126C205.922 89.6675 205.963 86.4223 205.963 83.0385Z" fill="#BCC4CF"/>
<path d="M331.811 78.6986C336.031 85.7327 340.23 92.7669 344.467 99.7727C345.821 102.012 346.7 104.283 345.968 107.009C345.072 110.329 342.908 112.138 339.758 112.526C337.067 112.856 334.646 111.89 333.12 109.455C330.067 104.585 327.136 99.6305 324.161 94.7076C321.996 91.1248 319.852 87.5277 317.663 83.9555C317.431 83.5752 316.983 83.0883 316.624 83.0812C313.543 83.0136 310.462 83.0421 307.288 83.0421C307.261 83.4935 307.223 83.8454 307.22 84.2008C307.131 90.9897 307.093 97.7786 306.95 104.568C306.826 110.486 301.129 114.09 296.178 111.292C293.879 109.995 292.447 107.777 292.436 104.923C292.402 97.4765 292.45 90.03 292.457 82.5835C292.471 68.1064 292.467 53.6293 292.495 39.1522C292.501 36.2625 293.315 33.6429 295.859 32.143C297.094 31.4179 298.616 30.8918 300.021 30.8598C306.153 30.7247 312.295 30.6679 318.426 30.8314C330.658 31.1584 340.145 40.51 342.128 51.3616C344.063 61.9467 341.044 70.7154 332.987 77.5612C332.642 77.8526 332.289 78.137 331.941 78.4284C331.913 78.4533 331.903 78.5066 331.811 78.6986ZM307.292 45.9305C307.292 53.3272 307.292 60.5924 307.292 67.9429C310.783 67.9429 314.175 67.9678 317.568 67.9358C323.474 67.8825 327.885 63.4004 328.1 57.2726C328.302 51.5571 324.164 46.293 318.925 45.9767C315.099 45.7457 311.248 45.9305 307.292 45.9305Z" fill="#BCC4CF"/>
<path d="M362.287 61.6659C362.287 68.7853 362.407 75.9119 362.253 83.0278C362.109 89.7137 366.856 95.0737 371.377 96.7052C381.971 100.526 390.305 91.6935 390.287 83.6783C390.257 68.7853 390.281 53.8924 390.291 38.9994C390.294 34.7341 392.425 31.951 396.364 31.0091C399.603 30.2342 403.405 32.4095 404.401 35.708C404.743 36.8454 404.961 38.0753 404.965 39.2624C405.002 53.5974 405.013 67.9323 404.982 82.2672C404.955 94.9991 398.057 105.844 387.131 110.461C370.758 117.381 352.302 107.44 348.407 89.5395C347.907 87.2434 347.623 84.8477 347.61 82.4982C347.538 68.0247 347.569 53.5511 347.579 39.074C347.582 34.7341 349.723 31.9475 353.728 30.9913C356.973 30.2165 360.899 32.5659 361.764 35.9035C362.075 37.1013 362.253 38.3703 362.26 39.6072C362.304 46.9613 362.284 54.3153 362.284 61.6694C362.28 61.6659 362.284 61.6659 362.287 61.6659Z" fill="#BCC4CF"/>
<path d="M288.087 103.853C288.08 108.317 284.427 112.131 280.153 112.146C275.878 112.16 272.171 108.339 272.137 103.892C272.103 99.3888 275.854 95.4931 280.19 95.5251C284.462 95.5536 288.097 99.3852 288.087 103.853Z" fill="#BCC4CF"/>
<path d="M279.165 89.5146C279.684 89.5182 280.201 89.5644 280.703 89.6462C281.767 89.8203 282.615 88.7504 282.225 87.709C275.8 70.5412 269.353 53.377 262.972 36.1914C261.546 32.3527 258.889 30.9593 256.013 30.8278C252.901 30.6856 250.234 32.7543 248.986 36.0919C242.311 53.9386 225.54 98.621 224.066 103.203C223.058 106.345 224.432 109.533 227.137 111.42C229.48 113.055 232.917 112.906 235.355 111.168C237.143 109.888 237.803 107.923 238.528 105.972C240.761 99.9753 243.005 93.9825 245.265 87.9294C245.549 87.1723 246.25 86.6711 247.033 86.6711H247.105C252.97 86.6711 258.834 86.6995 264.699 86.6462C265.794 86.6356 266.351 86.9306 266.737 88.0502C267.315 89.7243 267.927 91.3807 268.56 93.0619C268.943 94.0749 270.212 94.2846 270.906 93.4671C272.958 91.0501 275.943 89.4933 279.165 89.5146ZM251.448 71.5151C252.935 67.5342 254.392 63.6421 255.965 59.4301C257.545 63.6599 258.988 67.5342 260.476 71.5151H251.448Z" fill="#BCC4CF"/>
<path d="M66.3023 78.8265C66.2818 71.508 64.4557 67.3565 58.4097 67.3565C53.0818 67.3565 47.7505 67.3422 42.4226 67.3707C41.5369 67.3742 40.6341 67.4844 39.7723 67.687C36.5544 68.4441 34.3077 71.4369 34.3008 74.8847C34.294 78.3254 36.5339 81.3857 39.7552 82.0859C41.1402 82.3845 42.5902 82.4058 44.0128 82.4343C46.5912 82.4876 49.1731 82.4485 51.8541 82.4485C51.8541 85.8003 51.8165 88.9815 51.8746 92.1555C51.8917 92.9908 51.4779 93.7835 50.7666 94.1745C45.0489 97.3059 39.0166 97.6933 32.8851 96.1507C24.0725 93.9328 15.896 84.5527 14.7983 74.6003C13.1398 59.5688 22.5952 49.3889 31.7737 46.4814C39.7347 43.9578 46.0817 45.3156 53.5298 49.7373C54.2821 50.1851 54.9045 50.7076 55.4482 51.1448C56.2108 51.7562 57.3119 51.1804 57.3119 50.1816C57.3119 50.1745 57.3119 50.1673 57.3119 50.1567C57.3119 45.7386 59.5518 42.0064 62.2773 38.9781C62.7527 38.452 62.6364 37.5919 62.0345 37.2293C43.7016 26.2249 18.3651 30.3124 6.68338 48.2835C-4.64948 65.7214 -1.26057 89.3831 14.5042 102.854C28.3677 114.701 48.643 115.096 62.9647 103.906C66.1347 101.429 66.3468 98.2407 66.381 93.8119C66.4288 86.9306 66.3228 85.8287 66.3023 78.8265Z" fill="#BCC4CF"/>
</svg>
