<svg width="399" height="90" viewBox="0 0 399 90" fill="none" xmlns="http://www.w3.org/2000/svg">
<g clip-path="url(#clip0_5015_3089)">
<path d="M47.4678 1.26456C47.4687 1.11626 47.441 0.969242 47.3863 0.83197C47.3316 0.694699 47.251 0.569882 47.1491 0.4647C47.0472 0.359518 46.9261 0.276047 46.7927 0.219089C46.6592 0.162131 46.5162 0.13281 46.3717 0.132813H25.479C25.1882 0.132813 24.9094 0.251339 24.7039 0.462317C24.4983 0.673296 24.3828 0.959444 24.3828 1.25781V23.4878C24.3826 23.6493 24.4162 23.8089 24.4815 23.9558L29.8307 35.9731C29.8959 36.12 29.9296 36.2796 29.9294 36.4411V89.2981C29.9294 89.5964 30.0448 89.8826 30.2504 90.0936C30.456 90.3045 30.7348 90.4231 31.0255 90.4231H45.9902C46.2809 90.4231 46.5597 90.3045 46.7653 90.0936C46.9709 89.8826 47.0864 89.5964 47.0864 89.2981V53.5568C47.0864 52.4228 48.5377 52.0043 49.1164 52.9673L71.2763 89.8898C71.3747 90.0531 71.5121 90.1878 71.6756 90.2812C71.8391 90.3745 72.0231 90.4233 72.2102 90.4231H87.6616C87.9519 90.4231 88.2304 90.3048 88.4359 90.0944C88.6414 89.8839 88.7571 89.5983 88.7577 89.3003L88.8849 36.4253C88.8849 36.2746 88.9156 36.1238 88.9726 35.9843L94.2122 23.4181C94.272 23.276 94.3026 23.1228 94.3021 22.9681L94.1815 1.25106C94.1798 0.953865 94.0635 0.669448 93.8581 0.459927C93.6527 0.250407 93.3749 0.132807 93.0853 0.132813H72.8218C72.5315 0.132812 72.253 0.251029 72.0475 0.461521C71.842 0.672013 71.7263 0.957584 71.7257 1.25556L71.6073 59.0536C71.6029 60.1831 70.1604 60.6061 69.5794 59.6453L47.5117 23.2133C47.4028 23.033 47.3458 22.8247 47.3472 22.6126L47.4678 1.26456V1.26456Z" fill="#B8C0CC"/>
<path d="M96.2757 1.665C96.2362 1.09575 96.69 0.6075 97.2447 0.5535C134.503 -3.2085 121.761 35.1765 92.0292 58.2255C91.8738 58.3514 91.6861 58.4284 91.489 58.4473C91.2918 58.4661 91.0936 58.426 90.9181 58.3318C90.7427 58.2377 90.5975 58.0934 90.5002 57.9164C90.4029 57.7394 90.3575 57.5373 90.3696 57.3345C90.3916 56.817 90.4157 56.2973 90.4266 55.7775C90.4308 55.5869 90.4798 55.4002 90.5695 55.2333C90.6592 55.0664 90.787 54.9242 90.9418 54.819C97.2491 50.526 108.507 38.6618 113.654 27.0472C119.626 13.4752 119.595 1.8315 97.5757 3.61575C97.289 3.64224 97.0033 3.55441 96.778 3.3705C96.5527 3.18658 96.405 2.92069 96.3656 2.628C96.3295 2.3077 96.3003 1.98662 96.2779 1.665H96.2757ZM51.7324 1.125C51.7324 0.826631 51.8479 0.540483 52.0535 0.329505C52.259 0.118526 52.5378 0 52.8286 0L66.7607 0C67.0514 0 67.3302 0.118526 67.5358 0.329505C67.7413 0.540483 67.8568 0.826631 67.8568 1.125V45.9405C67.8568 47.079 66.3967 47.4975 65.8224 46.521L51.8902 22.806C51.7872 22.6308 51.7326 22.4301 51.7324 22.2255V1.125ZM24.379 30.8992C24.8109 30.5212 25.4642 30.5505 25.7294 31.0658C25.8939 31.383 26.032 31.7182 26.1898 32.04C26.4682 32.616 26.4178 33.3967 25.9574 33.8332C-15.4421 72.8347 7.78321 87.0345 27.058 84.1275C27.6981 84.0307 28.3032 84.501 28.312 85.167C28.3186 85.5428 28.312 85.8555 28.3207 86.2425C28.3272 86.5461 28.2202 86.8407 28.0217 87.0658C27.8231 87.291 27.5481 87.4295 27.2531 87.453C-9.59522 89.7705 -7.57829 58.6913 24.379 30.8992ZM51.7938 90.423C51.5031 90.423 51.2243 90.3045 51.0187 90.0935C50.8131 89.8825 50.6976 89.5964 50.6976 89.298V65.5807C50.6976 64.44 52.1621 64.0237 52.7343 65.0002L66.6028 88.7175C66.703 88.8881 66.7572 89.083 66.7599 89.2822C66.7626 89.4813 66.7138 89.6777 66.6184 89.8511C66.5229 90.0246 66.3844 90.1689 66.2168 90.2694C66.0492 90.3699 65.8586 90.4229 65.6645 90.423H51.796H51.7938Z" fill="#B8C0CC"/>
<path d="M140.165 38.3174C140.456 38.3174 140.735 38.1989 140.94 37.9879C141.146 37.777 141.261 37.4908 141.261 37.1924V22.6034C141.261 22.3051 141.377 22.0189 141.582 21.808C141.788 21.597 142.067 21.4784 142.357 21.4784H149.583C149.874 21.4784 150.153 21.597 150.358 21.808C150.564 22.0189 150.679 22.3051 150.679 22.6034V37.1924C150.679 37.4908 150.795 37.777 151 37.9879C151.206 38.1989 151.485 38.3174 151.776 38.3174H156.292C156.582 38.3174 156.861 38.1989 157.067 37.9879C157.272 37.777 157.388 37.4908 157.388 37.1924V2.45245C157.388 2.15408 157.272 1.86793 157.067 1.65695C156.861 1.44597 156.582 1.32745 156.292 1.32745H151.776C151.485 1.32745 151.206 1.44597 151 1.65695C150.795 1.86793 150.679 2.15408 150.679 2.45245V14.9174C150.679 15.2158 150.564 15.502 150.358 15.7129C150.153 15.9239 149.874 16.0424 149.583 16.0424H142.357C142.067 16.0424 141.788 15.9239 141.582 15.7129C141.377 15.502 141.261 15.2158 141.261 14.9174V2.45245C141.261 2.15408 141.146 1.86793 140.94 1.65695C140.735 1.44597 140.456 1.32745 140.165 1.32745H135.649C135.358 1.32745 135.079 1.44597 134.874 1.65695C134.668 1.86793 134.553 2.15408 134.553 2.45245V37.1924C134.553 37.4908 134.668 37.777 134.874 37.9879C135.079 38.1989 135.358 38.3174 135.649 38.3174H140.165ZM189.705 38.3174C189.995 38.3174 190.274 38.1989 190.48 37.9879C190.685 37.777 190.801 37.4908 190.801 37.1924V2.45245C190.801 2.15408 190.685 1.86793 190.48 1.65695C190.274 1.44597 189.995 1.32745 189.705 1.32745H184.575C184.356 1.32732 184.142 1.39431 183.961 1.5198C183.78 1.6453 183.639 1.82357 183.557 2.0317L178.546 14.8499C176.652 19.6268 175.062 24.5248 173.786 29.5132C173.782 29.5287 173.774 29.5424 173.761 29.5521C173.749 29.5619 173.734 29.5672 173.718 29.5672C173.709 29.5672 173.699 29.5652 173.69 29.5611C173.681 29.5571 173.673 29.5512 173.666 29.5438C173.66 29.5364 173.655 29.5276 173.652 29.5181C173.648 29.5085 173.647 29.4985 173.648 29.4884C173.905 26.1967 174.159 22.6439 174.288 19.0934C174.416 15.5114 174.674 11.9317 174.674 8.61745V2.45245C174.674 2.15408 174.559 1.86793 174.353 1.65695C174.148 1.44597 173.869 1.32745 173.578 1.32745H169.062C168.771 1.32745 168.492 1.44597 168.287 1.65695C168.081 1.86793 167.966 2.15408 167.966 2.45245V37.1924C167.966 37.4908 168.081 37.777 168.287 37.9879C168.492 38.1989 168.771 38.3174 169.062 38.3174H174.201C174.418 38.3172 174.63 38.2508 174.81 38.1266C174.991 38.0024 175.131 37.8261 175.214 37.6199L180.223 25.1909C182.021 20.8282 183.439 16.3349 184.98 10.5277C184.984 10.5122 184.993 10.4985 185.005 10.4888C185.018 10.479 185.033 10.4737 185.048 10.4737C185.09 10.4737 185.121 10.5097 185.118 10.5524C184.834 14.0602 184.579 17.5703 184.351 21.0824C184.22 24.7949 183.963 28.5074 183.963 31.4234V37.1924C183.963 37.4908 184.079 37.777 184.284 37.9879C184.49 38.1989 184.768 38.3174 185.059 38.3174H189.705V38.3174ZM219.117 38.3174C219.407 38.3174 219.686 38.1989 219.892 37.9879C220.097 37.777 220.213 37.4908 220.213 37.1924V34.0064C220.213 33.7081 220.097 33.4219 219.892 33.211C219.686 33 219.407 32.8814 219.117 32.8814H209.054C208.763 32.8814 208.484 32.7629 208.279 32.5519C208.073 32.341 207.958 32.0548 207.958 31.7564V22.6034C207.958 22.3051 208.073 22.0189 208.279 21.808C208.484 21.597 208.763 21.4784 209.054 21.4784H218.086C218.377 21.4784 218.656 21.3599 218.861 21.1489C219.067 20.938 219.182 20.6518 219.182 20.3534V17.1674C219.182 16.8691 219.067 16.5829 218.861 16.372C218.656 16.161 218.377 16.0424 218.086 16.0424H209.054C208.763 16.0424 208.484 15.9239 208.279 15.7129C208.073 15.502 207.958 15.2158 207.958 14.9174V7.8862C207.958 7.58783 208.073 7.30168 208.279 7.0907C208.484 6.87972 208.763 6.7612 209.054 6.7612H219.117C219.407 6.7612 219.686 6.64267 219.892 6.43169C220.097 6.22071 220.213 5.93456 220.213 5.6362V2.45245C220.213 2.15408 220.097 1.86793 219.892 1.65695C219.686 1.44597 219.407 1.32745 219.117 1.32745H202.346C202.055 1.32745 201.776 1.44597 201.57 1.65695C201.365 1.86793 201.249 2.15408 201.249 2.45245V37.1924C201.249 37.4908 201.365 37.777 201.57 37.9879C201.776 38.1989 202.055 38.3174 202.346 38.3174H219.117ZM235.243 38.3174C235.534 38.3174 235.813 38.1989 236.018 37.9879C236.224 37.777 236.339 37.4908 236.339 37.1924V22.6034C236.339 22.3051 236.455 22.0189 236.661 21.808C236.866 21.597 237.145 21.4784 237.436 21.4784H244.661C244.952 21.4784 245.231 21.597 245.437 21.808C245.642 22.0189 245.758 22.3051 245.758 22.6034V37.1924C245.758 37.4908 245.873 37.777 246.079 37.9879C246.284 38.1989 246.563 38.3174 246.854 38.3174H251.37C251.661 38.3174 251.939 38.1989 252.145 37.9879C252.351 37.777 252.466 37.4908 252.466 37.1924V2.45245C252.466 2.15408 252.351 1.86793 252.145 1.65695C251.939 1.44597 251.661 1.32745 251.37 1.32745H246.854C246.563 1.32745 246.284 1.44597 246.079 1.65695C245.873 1.86793 245.758 2.15408 245.758 2.45245V14.9174C245.758 15.2158 245.642 15.502 245.437 15.7129C245.231 15.9239 244.952 16.0424 244.661 16.0424H237.436C237.145 16.0424 236.866 15.9239 236.661 15.7129C236.455 15.502 236.339 15.2158 236.339 14.9174V2.45245C236.339 2.15408 236.224 1.86793 236.018 1.65695C235.813 1.44597 235.534 1.32745 235.243 1.32745H230.727C230.436 1.32745 230.158 1.44597 229.952 1.65695C229.746 1.86793 229.631 2.15408 229.631 2.45245V37.1924C229.631 37.4908 229.746 37.777 229.952 37.9879C230.158 38.1989 230.436 38.3174 230.727 38.3174H235.243ZM276.465 31.7609C276.464 32.0585 276.348 32.3435 276.143 32.5535C275.937 32.7635 275.659 32.8814 275.369 32.8814H270.978C270.687 32.8814 270.408 32.7629 270.203 32.5519C269.997 32.341 269.882 32.0548 269.882 31.7564V2.4502C269.882 2.15183 269.766 1.86568 269.561 1.6547C269.355 1.44372 269.076 1.3252 268.786 1.3252H264.269C263.979 1.3252 263.7 1.44372 263.494 1.6547C263.289 1.86568 263.173 2.15183 263.173 2.4502V37.1902C263.173 37.4886 263.289 37.7747 263.494 37.9857C263.7 38.1967 263.979 38.3152 264.269 38.3152H295.49C295.781 38.3152 296.06 38.1967 296.265 37.9857C296.471 37.7747 296.586 37.4886 296.586 37.1902V2.45245C296.586 2.15408 296.471 1.86793 296.265 1.65695C296.06 1.44597 295.781 1.32745 295.49 1.32745H290.974C290.683 1.32745 290.404 1.44597 290.199 1.65695C289.993 1.86793 289.878 2.15408 289.878 2.45245V31.7587C289.878 32.0571 289.762 32.3432 289.557 32.5542C289.351 32.7652 289.072 32.8837 288.782 32.8837H284.395C284.104 32.8837 283.825 32.7652 283.62 32.5542C283.414 32.3432 283.299 32.0571 283.299 31.7587V2.4502C283.299 2.15183 283.183 1.86568 282.978 1.6547C282.772 1.44372 282.493 1.3252 282.203 1.3252H277.682C277.392 1.32519 277.114 1.4431 276.908 1.65311C276.703 1.86311 276.587 2.14811 276.586 2.4457L276.465 31.7609V31.7609ZM310.777 38.3174C311.031 38.3176 311.278 38.227 311.474 38.0612C311.671 37.8953 311.805 37.6646 311.853 37.4084L313.311 29.8102C313.361 29.5545 313.495 29.3242 313.691 29.1588C313.888 28.9935 314.134 28.9032 314.388 28.9034H320.454C320.708 28.9037 320.953 28.9942 321.149 29.1596C321.345 29.3249 321.479 29.5548 321.528 29.8102L322.986 37.4084C323.035 37.6646 323.169 37.8953 323.365 38.0612C323.562 38.227 323.808 38.3176 324.062 38.3174H329.01C329.175 38.3173 329.338 38.2791 329.486 38.2056C329.635 38.1321 329.765 38.0253 329.868 37.8929C329.97 37.7606 330.042 37.6063 330.079 37.4414C330.115 37.2765 330.115 37.1052 330.078 36.9404L322.324 2.20045C322.269 1.95204 322.133 1.73019 321.939 1.57119C321.745 1.41219 321.505 1.32546 321.256 1.3252H313.962C313.716 1.32538 313.477 1.41073 313.284 1.56748C313.09 1.72423 312.954 1.94325 312.897 2.1892L304.779 36.9292C304.74 37.0946 304.738 37.2668 304.774 37.433C304.809 37.5992 304.881 37.7549 304.984 37.8886C305.086 38.0222 305.217 38.1302 305.366 38.2045C305.515 38.2788 305.679 38.3174 305.844 38.3174H310.777ZM316.453 12.9937C316.839 11.2702 316.968 9.5467 317.098 7.8232C317.098 7.0492 317.22 6.1492 317.345 5.3707C317.348 5.3522 317.357 5.33525 317.37 5.32288C317.384 5.31052 317.402 5.30354 317.42 5.3032C317.457 5.3032 317.49 5.3302 317.494 5.3707C317.613 6.14245 317.617 6.92095 317.742 7.8232C317.871 9.5467 318.13 11.2702 318.389 12.9937L319.965 22.1467C319.993 22.3084 319.986 22.4745 319.945 22.6331C319.903 22.7918 319.828 22.9392 319.726 23.0651C319.623 23.191 319.494 23.2922 319.349 23.3617C319.205 23.4312 319.046 23.4673 318.886 23.4674H315.729C315.567 23.4678 315.406 23.431 315.259 23.3596C315.112 23.2883 314.982 23.1842 314.879 23.0549C314.776 22.9257 314.702 22.7745 314.663 22.6123C314.624 22.4501 314.621 22.2811 314.653 22.1174L316.453 12.9937V12.9937ZM343.738 38.3174C344.029 38.3174 344.308 38.1989 344.514 37.9879C344.719 37.777 344.835 37.4908 344.835 37.1924V22.6034C344.835 22.3051 344.95 22.0189 345.156 21.808C345.361 21.597 345.64 21.4784 345.931 21.4784H353.154C353.445 21.4784 353.724 21.597 353.929 21.808C354.135 22.0189 354.251 22.3051 354.251 22.6034V37.1924C354.251 37.4908 354.366 37.777 354.572 37.9879C354.777 38.1989 355.056 38.3174 355.347 38.3174H359.863C360.154 38.3174 360.432 38.1989 360.638 37.9879C360.844 37.777 360.959 37.4908 360.959 37.1924V2.45245C360.959 2.15408 360.844 1.86793 360.638 1.65695C360.432 1.44597 360.154 1.32745 359.863 1.32745H355.347C355.056 1.32745 354.777 1.44597 354.572 1.65695C354.366 1.86793 354.251 2.15408 354.251 2.45245V14.9174C354.251 15.2158 354.135 15.502 353.929 15.7129C353.724 15.9239 353.445 16.0424 353.154 16.0424H345.931C345.64 16.0424 345.361 15.9239 345.156 15.7129C344.95 15.502 344.835 15.2158 344.835 14.9174V2.45245C344.835 2.15408 344.719 1.86793 344.514 1.65695C344.308 1.44597 344.029 1.32745 343.738 1.32745H339.222C338.932 1.32745 338.653 1.44597 338.447 1.65695C338.242 1.86793 338.126 2.15408 338.126 2.45245V37.1924C338.126 37.4908 338.242 37.777 338.447 37.9879C338.653 38.1989 338.932 38.3174 339.222 38.3174H343.738ZM396.224 38.4299C396.37 38.4326 396.515 38.4055 396.65 38.3502C396.785 38.2949 396.908 38.2124 397.012 38.1077C397.116 38.0029 397.199 37.878 397.255 37.7402C397.311 37.6024 397.34 37.4544 397.34 37.3049V34.1392C397.34 33.8408 397.225 33.5547 397.019 33.3437C396.814 33.1327 396.535 33.0142 396.244 33.0142H395.468C395.177 33.0142 394.899 32.8957 394.693 32.6847C394.487 32.4737 394.372 32.1876 394.372 31.8892V2.4502C394.372 2.15183 394.256 1.86568 394.051 1.6547C393.845 1.44372 393.567 1.3252 393.276 1.3252H388.76C388.469 1.3252 388.19 1.44372 387.985 1.6547C387.779 1.86568 387.663 2.15183 387.663 2.4502V31.7564C387.663 32.0548 387.548 32.341 387.342 32.5519C387.137 32.7629 386.858 32.8814 386.567 32.8814H379.344C379.053 32.8814 378.774 32.7629 378.569 32.5519C378.363 32.341 378.248 32.0548 378.248 31.7564V2.4502C378.248 2.15183 378.132 1.86568 377.926 1.6547C377.721 1.44372 377.442 1.3252 377.151 1.3252H372.635C372.345 1.3252 372.066 1.44372 371.86 1.6547C371.655 1.86568 371.539 2.15183 371.539 2.4502V37.1902C371.539 37.4886 371.655 37.7747 371.86 37.9857C372.066 38.1967 372.345 38.3152 372.635 38.3152H390.244L396.224 38.4277V38.4299ZM135.2 88.0334C135.453 88.0332 135.699 87.9427 135.895 87.7773C136.091 87.612 136.225 87.382 136.274 87.1267L137.734 79.5284C137.783 79.2727 137.916 79.0422 138.112 78.8764C138.308 78.7106 138.554 78.6198 138.808 78.6194H144.876C145.13 78.6198 145.376 78.7106 145.572 78.8764C145.768 79.0422 145.902 79.2727 145.951 79.5284L147.408 87.1267C147.458 87.382 147.592 87.612 147.788 87.7773C147.983 87.9427 148.229 88.0332 148.483 88.0334H153.437C153.602 88.0332 153.764 87.995 153.912 87.9218C154.06 87.8486 154.19 87.7421 154.292 87.6103C154.395 87.4786 154.467 87.3248 154.504 87.1605C154.541 86.9962 154.541 86.8254 154.505 86.6609L146.874 51.9209C146.819 51.6717 146.683 51.4491 146.489 51.2896C146.294 51.1301 146.053 51.0433 145.804 51.0434H138.514C138.268 51.0435 138.029 51.1285 137.836 51.2848C137.643 51.4412 137.506 51.6597 137.449 51.9052L129.331 86.6452C129.292 86.8106 129.29 86.9828 129.326 87.149C129.361 87.3152 129.433 87.4709 129.535 87.6046C129.638 87.7382 129.769 87.8462 129.918 87.9205C130.067 87.9948 130.23 88.0334 130.396 88.0334H135.2ZM141.005 62.7097C141.391 60.9862 141.52 59.2627 141.649 57.5392C141.649 56.7652 141.772 55.8652 141.897 55.0867C141.9 55.0682 141.909 55.0512 141.922 55.0389C141.936 55.0265 141.953 55.0195 141.972 55.0192C142.009 55.0192 142.04 55.0484 142.046 55.0867C142.164 55.8584 142.169 56.6369 142.294 57.5392C142.423 59.2627 142.68 60.9862 142.938 62.7097L144.517 71.8627C144.545 72.0244 144.538 72.1905 144.496 72.3491C144.455 72.5078 144.38 72.6552 144.278 72.7811C144.175 72.907 144.046 73.0082 143.901 73.0777C143.756 73.1472 143.598 73.1833 143.438 73.1834H140.281C140.119 73.1834 139.959 73.1464 139.812 73.075C139.665 73.0036 139.536 72.8997 139.433 72.7708C139.33 72.6418 139.257 72.491 139.218 72.3293C139.179 72.1676 139.175 71.999 139.207 71.8357L141.005 62.7097ZM166.096 82.5997C165.805 82.5997 165.526 82.4812 165.321 82.2702C165.115 82.0592 165 81.7731 165 81.4747V72.4522C165 72.1538 165.115 71.8677 165.321 71.6567C165.526 71.4457 165.805 71.3272 166.096 71.3272H167.58C171.708 71.3272 172.482 73.0507 172.482 77.0287C172.482 78.8849 172.223 81.2722 170.417 82.1992C169.255 82.7302 167.836 82.5974 166.418 82.5974H166.096V82.5997ZM166.096 65.8912C165.805 65.8912 165.526 65.7727 165.321 65.5617C165.115 65.3507 165 65.0646 165 64.7662V57.4717C165 57.1733 165.115 56.8872 165.321 56.6762C165.526 56.4652 165.805 56.3467 166.096 56.3467H168.095C171.191 56.4794 171.708 57.8047 171.708 60.5879C171.708 62.3114 171.576 63.6389 170.934 64.5659C169.902 65.8934 167.709 65.8934 166.159 65.8934H166.094L166.096 65.8912ZM170.158 88.0334C174.933 88.0334 177.513 86.0444 179.059 81.4049C179.447 79.9469 179.576 78.3562 179.576 76.8959C179.576 72.1529 178.173 68.8499 174.359 68.2897C174.339 68.2865 174.321 68.276 174.308 68.2603C174.295 68.2446 174.288 68.2247 174.288 68.2042C174.288 68.1704 174.31 68.1367 174.343 68.1254C177.908 66.7867 178.673 63.6209 178.673 60.4552C178.673 57.9352 178.416 55.8157 176.869 53.8267C174.933 51.3067 172.094 51.1762 169.257 51.1762H159.387C159.097 51.1762 158.818 51.2947 158.612 51.5057C158.407 51.7167 158.291 52.0028 158.291 52.3012V87.0299C158.291 87.1786 158.32 87.3259 158.376 87.4631C158.431 87.6003 158.513 87.7248 158.616 87.8294C158.719 87.9341 158.841 88.0167 158.975 88.0726C159.11 88.1284 159.253 88.1564 159.398 88.1549L170.16 88.0334H170.158ZM181.898 55.2217C181.898 55.5201 182.013 55.8062 182.219 56.0172C182.425 56.2282 182.703 56.3467 182.994 56.3467H188.672C188.963 56.3467 189.242 56.4652 189.447 56.6762C189.653 56.8872 189.768 57.1733 189.768 57.4717V86.7757C189.768 87.0741 189.884 87.3602 190.089 87.5712C190.295 87.7822 190.574 87.9007 190.864 87.9007H195.381C195.671 87.9007 195.95 87.7822 196.156 87.5712C196.361 87.3602 196.477 87.0741 196.477 86.7757V57.4739C196.477 57.1756 196.592 56.8894 196.798 56.6784C197.003 56.4675 197.282 56.3489 197.573 56.3489H203.251C203.542 56.3489 203.82 56.2304 204.026 56.0194C204.232 55.8085 204.347 55.5223 204.347 55.2239V52.0379C204.347 51.7396 204.232 51.4534 204.026 51.2424C203.82 51.0315 203.542 50.9129 203.251 50.9129H182.994C182.703 50.9129 182.425 51.0315 182.219 51.2424C182.013 51.4534 181.898 51.7396 181.898 52.0379V55.2239V55.2217ZM207.055 71.8582C207.055 81.6682 207.829 88.9627 218.794 88.9627C229.89 88.9627 230.534 81.8032 230.534 71.8582V66.5549C230.276 57.1409 229.502 50.1142 218.794 50.1142C208.087 50.1142 207.313 57.1409 207.055 66.5549V71.8582ZM214.022 64.9642C214.022 62.0482 213.634 55.6829 218.924 55.6829C223.955 55.6829 223.826 62.3114 223.826 65.2297V74.6437C223.826 78.2212 223.826 83.2612 218.924 83.2612C214.28 83.2612 214.022 78.2212 214.022 75.1724V64.9642ZM243.436 76.3672C243.436 69.1222 243.307 61.7512 242.927 54.5062C242.923 54.4689 242.933 54.4312 242.955 54.4015C242.977 54.3717 243.01 54.3523 243.047 54.3476C243.083 54.3428 243.12 54.353 243.149 54.376C243.178 54.399 243.197 54.4329 243.201 54.4702L250.085 87.1469C250.138 87.3982 250.274 87.6232 250.469 87.7845C250.664 87.9458 250.907 88.0336 251.157 88.0334H253.516C253.767 88.033 254.009 87.9446 254.204 87.7829C254.399 87.6212 254.533 87.396 254.586 87.1447L261.483 54.2812C261.487 54.2653 261.495 54.2511 261.507 54.2409C261.52 54.2307 261.535 54.2251 261.551 54.2249C261.59 54.2249 261.623 54.2587 261.621 54.2992C261.237 61.5667 261.108 68.9669 261.108 76.2344V86.7757C261.108 87.0741 261.224 87.3602 261.429 87.5712C261.635 87.7822 261.914 87.9007 262.204 87.9007H266.72C267.011 87.9007 267.29 87.7822 267.496 87.5712C267.701 87.3602 267.817 87.0741 267.817 86.7757V52.1707C267.817 51.8723 267.701 51.5862 267.496 51.3752C267.29 51.1642 267.011 51.0457 266.72 51.0457H257.995C257.744 51.0456 257.501 51.1338 257.306 51.2955C257.111 51.4573 256.976 51.6828 256.923 51.9344L253.496 68.2807C252.986 70.6522 252.727 73.1542 252.47 76.7002C252.47 76.7193 252.463 76.7376 252.45 76.7511C252.437 76.7646 252.419 76.7722 252.4 76.7722C252.382 76.7722 252.364 76.7646 252.351 76.7511C252.338 76.7376 252.33 76.7193 252.33 76.7002C252.071 73.8089 251.686 71.0437 251.045 68.2807L247.621 51.9344C247.568 51.683 247.433 51.4577 247.238 51.296C247.043 51.1344 246.8 51.046 246.549 51.0457H237.824C237.533 51.0457 237.254 51.1642 237.049 51.3752C236.843 51.5862 236.728 51.8723 236.728 52.1707V86.9107C236.728 87.2091 236.843 87.4952 237.049 87.7062C237.254 87.9172 237.533 88.0357 237.824 88.0357H242.34C242.631 88.0357 242.909 87.9172 243.115 87.7062C243.32 87.4952 243.436 87.2091 243.436 86.9107V76.3694V76.3672ZM277.623 88.0334C277.877 88.0337 278.123 87.9434 278.319 87.778C278.516 87.6127 278.65 87.3824 278.699 87.1267L280.157 79.5284C280.206 79.2727 280.34 79.0422 280.536 78.8764C280.731 78.7106 280.977 78.6198 281.231 78.6194H287.3C287.554 78.6198 287.8 78.7106 287.995 78.8764C288.191 79.0422 288.325 79.2727 288.374 79.5284L289.832 87.1267C289.881 87.3824 290.015 87.6127 290.212 87.778C290.408 87.9434 290.654 88.0337 290.908 88.0334H295.861C296.025 88.0332 296.187 87.995 296.335 87.9218C296.483 87.8486 296.613 87.7421 296.716 87.6103C296.818 87.4786 296.89 87.3248 296.927 87.1605C296.964 86.9962 296.964 86.8254 296.928 86.6609L289.297 51.9209C289.242 51.6717 289.106 51.4491 288.912 51.2896C288.717 51.1301 288.476 51.0433 288.227 51.0434H280.938C280.692 51.0435 280.453 51.1285 280.259 51.2848C280.066 51.4412 279.93 51.6597 279.872 51.9052L271.754 86.6452C271.715 86.8106 271.713 86.9828 271.749 87.149C271.784 87.3152 271.856 87.4709 271.959 87.6046C272.061 87.7382 272.192 87.8462 272.341 87.9205C272.49 87.9948 272.654 88.0334 272.819 88.0334H277.623V88.0334ZM283.428 62.7097C283.814 60.9862 283.943 59.2627 284.073 57.5392C284.073 56.7652 284.193 55.8652 284.32 55.0867C284.322 55.068 284.331 55.0508 284.345 55.0383C284.359 55.0259 284.377 55.0191 284.395 55.0192C284.432 55.0192 284.463 55.0484 284.469 55.0867C284.588 55.8584 284.592 56.6369 284.717 57.5392C284.846 59.2627 285.103 60.9862 285.362 62.7097L286.94 71.8627C286.968 72.0244 286.961 72.1905 286.92 72.3491C286.878 72.5078 286.804 72.6552 286.701 72.7811C286.598 72.907 286.47 73.0082 286.325 73.0777C286.18 73.1472 286.022 73.1833 285.862 73.1834H282.702C282.54 73.1834 282.38 73.1464 282.233 73.075C282.086 73.0036 281.957 72.8997 281.854 72.7708C281.751 72.6418 281.678 72.491 281.639 72.3293C281.6 72.1676 281.596 71.999 281.628 71.8357L283.428 62.7097ZM294.909 55.2217C294.909 55.5201 295.025 55.8062 295.23 56.0172C295.436 56.2282 295.715 56.3467 296.005 56.3467H301.681C301.972 56.3467 302.251 56.4652 302.456 56.6762C302.662 56.8872 302.777 57.1733 302.777 57.4717V86.7757C302.777 87.0741 302.893 87.3602 303.098 87.5712C303.304 87.7822 303.583 87.9007 303.873 87.9007H308.39C308.68 87.9007 308.959 87.7822 309.165 87.5712C309.37 87.3602 309.486 87.0741 309.486 86.7757V57.4739C309.486 57.1756 309.601 56.8894 309.807 56.6784C310.012 56.4675 310.291 56.3489 310.582 56.3489H316.26C316.551 56.3489 316.83 56.2304 317.035 56.0194C317.241 55.8085 317.356 55.5223 317.356 55.2239V52.0379C317.356 51.7396 317.241 51.4534 317.035 51.2424C316.83 51.0315 316.551 50.9129 316.26 50.9129H296.005C295.715 50.9129 295.436 51.0315 295.23 51.2424C295.025 51.4534 294.909 51.7396 294.909 52.0379V55.2239V55.2217ZM343.094 88.0334C343.385 88.0334 343.663 87.9149 343.869 87.7039C344.075 87.493 344.19 87.2068 344.19 86.9084V52.1684C344.19 51.8701 344.075 51.5839 343.869 51.3729C343.663 51.162 343.385 51.0434 343.094 51.0434H337.964C337.745 51.0433 337.532 51.1103 337.35 51.2358C337.169 51.3613 337.028 51.5396 336.947 51.7477L331.933 64.5659C330.039 69.343 328.449 74.241 327.173 79.2292C327.17 79.2447 327.162 79.2585 327.15 79.2684C327.138 79.2783 327.123 79.2835 327.108 79.2832C327.098 79.2836 327.088 79.2818 327.079 79.278C327.07 79.2742 327.062 79.2685 327.056 79.2613C327.049 79.2541 327.044 79.2454 327.041 79.236C327.038 79.2266 327.036 79.2166 327.037 79.2067C327.294 75.9127 327.548 72.3599 327.675 68.8094C327.805 65.2297 328.063 61.6499 328.063 58.3357V52.1684C328.063 51.8701 327.948 51.5839 327.742 51.3729C327.537 51.162 327.258 51.0434 326.967 51.0434H322.451C322.16 51.0434 321.882 51.162 321.676 51.3729C321.47 51.5839 321.355 51.8701 321.355 52.1684V86.9084C321.355 87.2068 321.47 87.493 321.676 87.7039C321.882 87.9149 322.16 88.0334 322.451 88.0334H327.588C327.805 88.0337 328.017 87.9677 328.197 87.8439C328.378 87.7201 328.518 87.5441 328.601 87.3382L333.61 74.9069C335.412 70.5464 336.826 66.0532 338.369 60.2437C338.374 60.2287 338.383 60.2155 338.395 60.2061C338.407 60.1968 338.422 60.1918 338.437 60.1919C338.447 60.1915 338.457 60.1933 338.465 60.1971C338.474 60.2009 338.482 60.2066 338.489 60.2139C338.495 60.2212 338.5 60.2299 338.503 60.2393C338.506 60.2487 338.507 60.2587 338.505 60.2684C338.222 63.7763 337.967 67.2864 337.738 70.7984C337.609 74.5109 337.352 78.2234 337.352 81.1394V86.9084C337.352 87.2068 337.468 87.493 337.673 87.7039C337.879 87.9149 338.158 88.0334 338.448 88.0334H343.094V88.0334ZM356.252 88.0334C356.543 88.0334 356.822 87.9149 357.027 87.7039C357.233 87.493 357.348 87.2068 357.348 86.9084V77.7374C357.348 77.5349 357.401 77.3347 357.504 77.1592L358.585 75.3074C358.688 75.1306 358.836 74.9863 359.014 74.8902C359.192 74.7941 359.391 74.7499 359.592 74.7624C359.792 74.7749 359.986 74.8437 360.15 74.9613C360.315 75.0788 360.446 75.2406 360.527 75.4289L365.701 87.3652C365.879 87.7702 366.271 88.0334 366.703 88.0334H371.903C372.086 88.0336 372.267 87.9866 372.428 87.8967C372.589 87.8068 372.725 87.6769 372.825 87.5188C372.924 87.3608 372.983 87.1797 372.997 86.9921C373.011 86.8045 372.978 86.6164 372.903 86.4449L364.546 67.4774C364.474 67.3151 364.441 67.1376 364.45 66.9596C364.458 66.7816 364.507 66.6082 364.594 66.4537L372.274 52.7287C372.37 52.5575 372.42 52.3633 372.42 52.1656C372.42 51.968 372.369 51.7738 372.273 51.6027C372.176 51.4316 372.038 51.2897 371.871 51.1911C371.704 51.0925 371.515 51.0408 371.322 51.0412H366.256C366.058 51.0415 365.865 51.0964 365.695 51.2002C365.526 51.3039 365.387 51.4527 365.293 51.6307L361.606 58.6012C360.194 61.2359 358.401 64.5277 357.366 67.4324C357.359 67.4486 357.347 67.462 357.332 67.4703C357.316 67.4786 357.299 67.4815 357.282 67.4784C357.265 67.4752 357.25 67.4664 357.238 67.4531C357.227 67.4399 357.22 67.4231 357.219 67.4054V52.1684C357.219 51.8701 357.103 51.5839 356.898 51.3729C356.692 51.162 356.413 51.0434 356.123 51.0434H351.607C351.316 51.0434 351.037 51.162 350.832 51.3729C350.626 51.5839 350.51 51.8701 350.51 52.1684V86.9084C350.51 87.2068 350.626 87.493 350.832 87.7039C351.037 87.9149 351.316 88.0334 351.607 88.0334H356.252V88.0334ZM379.021 88.0334C379.275 88.0337 379.522 87.9434 379.718 87.778C379.914 87.6127 380.049 87.3824 380.098 87.1267L381.556 79.5284C381.605 79.2723 381.739 79.0415 381.935 78.8757C382.131 78.7099 382.378 78.6193 382.632 78.6194H388.698C388.952 78.6198 389.198 78.7106 389.394 78.8764C389.59 79.0422 389.724 79.2727 389.772 79.5284L391.23 87.1267C391.28 87.3822 391.414 87.6122 391.611 87.7775C391.807 87.9428 392.053 88.0333 392.307 88.0334H397.259C397.424 88.0335 397.586 87.9956 397.734 87.9225C397.883 87.8494 398.013 87.743 398.116 87.6112C398.218 87.4794 398.291 87.3255 398.328 87.161C398.365 86.9965 398.365 86.8256 398.329 86.6609L390.695 51.9209C390.641 51.6717 390.505 51.4491 390.311 51.2896C390.116 51.1301 389.875 51.0433 389.626 51.0434H382.336C382.09 51.0435 381.851 51.1285 381.658 51.2848C381.465 51.4412 381.328 51.6597 381.271 51.9052L373.153 86.6452C373.114 86.8106 373.112 86.9828 373.148 87.149C373.183 87.3152 373.255 87.4709 373.357 87.6046C373.46 87.7382 373.591 87.8462 373.74 87.9205C373.889 87.9948 374.052 88.0334 374.218 88.0334H379.021V88.0334ZM384.827 62.7097C385.213 60.9862 385.342 59.2627 385.471 57.5392C385.471 56.7652 385.594 55.8652 385.719 55.0867C385.722 55.0682 385.73 55.0512 385.744 55.0389C385.758 55.0265 385.775 55.0195 385.793 55.0192C385.831 55.0192 385.864 55.0484 385.868 55.0867C385.986 55.8584 385.991 56.6369 386.116 57.5392C386.245 59.2627 386.504 60.9862 386.76 62.7097L388.339 71.8627C388.367 72.0244 388.36 72.1905 388.318 72.3491C388.277 72.5078 388.202 72.6552 388.099 72.7811C387.997 72.907 387.868 73.0082 387.723 73.0777C387.578 73.1472 387.42 73.1833 387.26 73.1834H384.101C383.939 73.1834 383.778 73.1464 383.632 73.075C383.485 73.0036 383.356 72.8997 383.253 72.7708C383.15 72.6418 383.076 72.491 383.037 72.3293C382.998 72.1676 382.995 71.999 383.027 71.8357L384.827 62.7097ZM134.038 44.6152C134.038 44.0662 134.472 43.6207 135.007 43.6207H396.113C396.37 43.6207 396.616 43.7255 396.798 43.912C396.98 44.0985 397.082 44.3514 397.082 44.6152C397.082 44.879 396.98 45.1319 396.798 45.3184C396.616 45.5049 396.37 45.6097 396.113 45.6097H135.007C134.75 45.6097 134.503 45.5049 134.321 45.3184C134.14 45.1319 134.038 44.879 134.038 44.6152Z" fill="#B8C0CC"/>
</g>
<defs>
<clipPath id="clip0_5015_3089">
<rect width="399" height="90" fill="white"/>
</clipPath>
</defs>
</svg>
