<svg width="135" height="25" viewBox="0 0 135 25" fill="none" xmlns="http://www.w3.org/2000/svg">
<g clip-path="url(#clip0_4825_1232)">
<path fill-rule="evenodd" clip-rule="evenodd" d="M31.2555 13.0756C31.2555 12.917 31.2302 12.7616 31.208 12.6126L31.1984 12.5618C30.7957 9.55852 28.0493 6.59646 25.6327 5.47062C24.1897 4.62069 22.4011 4.29404 20.8217 4.00544C19.4517 3.75491 18.1609 3.52022 17.2729 2.9906C17.1842 2.93352 17.0827 2.87326 16.9812 2.81935C16.8892 2.76861 16.7909 2.71152 16.7084 2.66078C16.4738 2.50856 15.719 1.8616 15.1957 1.25269C14.9452 0.951412 14.72 0.593047 14.5583 0.247367L14.4346 0V13.2215H15.8585V3.8437C16.0742 4.04667 16.3279 4.23378 16.6767 4.43675C17.4664 4.89977 18.8364 5.15665 20.2858 5.42939C21.808 5.71481 23.3842 6.00975 24.6464 6.57743C27.7512 7.98552 29.6698 11.2901 29.8633 13.1295C29.8633 13.2056 29.8696 13.2817 29.876 13.3547C29.8823 13.4149 29.8887 13.4752 29.8887 13.5259V15.4826H17.0192V22.0632H17.0541C17.5013 22.0632 17.7899 22.0379 18.2402 21.9808L18.3544 21.9776V16.748H31.3158V15.4097C31.3126 14.693 31.3126 13.8018 31.2555 13.0756Z" fill="#BCC4CF"/>
<path fill-rule="evenodd" clip-rule="evenodd" d="M39.3291 18.6985V9.2605H45.805V10.7986H40.9846V13.0852H43.1157C43.991 13.0852 44.9329 13.0598 45.6687 13.6877C46.23 14.1698 46.6518 14.9436 46.6518 15.8665C46.6518 16.7735 46.2966 17.5124 45.7765 17.9659C45.3262 18.3655 44.5746 18.6985 43.3726 18.6985H39.3291V18.6985ZM40.9814 17.2428H43.3187C43.8103 17.2428 44.2479 17.0684 44.4921 16.8401C44.7522 16.6022 44.8885 16.2819 44.8885 15.9204C44.8885 15.4669 44.6982 15.1149 44.4509 14.8865C44.083 14.5535 43.5629 14.525 43.1538 14.525H40.9814V17.2428Z" fill="#BCC4CF"/>
<path fill-rule="evenodd" clip-rule="evenodd" d="M54.3862 18.6731L53.9232 17.1921H50.1207L49.6862 18.6731H48.0244L51.0372 9.2605H52.9971L56.1051 18.6731H54.3862ZM52.1631 11.3695C52.1091 11.1823 52.0394 10.8081 52.0013 10.5037C51.9728 10.7447 51.9189 11.1443 51.8649 11.3409L50.571 15.7428H53.4728L52.1631 11.3695Z" fill="#BCC4CF"/>
<path fill-rule="evenodd" clip-rule="evenodd" d="M57.7705 9.2605H59.4069V13.0757H63.5963V9.2605H65.2359V18.6858H63.5963V14.5345H59.4069V18.6858H57.7705V9.2605Z" fill="#BCC4CF"/>
<path fill-rule="evenodd" clip-rule="evenodd" d="M79.5852 9.22876H82.9849C84.2408 9.22876 84.9924 9.65689 85.4015 10.0311C85.7694 10.38 86.2609 11.0745 86.2609 12.3145C86.2609 13.304 85.9248 13.9478 85.4205 14.4932C84.948 15.007 84.0886 15.2449 83.0927 15.2449H81.2343V18.6604H79.582V9.22876H79.5852ZM82.9025 13.8082C83.4923 13.8082 83.8729 13.6084 84.0917 13.3959C84.3105 13.1803 84.5294 12.8346 84.5294 12.2352C84.5294 11.6866 84.3518 11.3568 84.1203 11.1157C83.7238 10.7161 83.1657 10.6908 82.931 10.6908H81.2375V13.8146H82.9025V13.8082Z" fill="#BCC4CF"/>
<path fill-rule="evenodd" clip-rule="evenodd" d="M94.9995 10.3862C96.0238 11.5437 96.1982 12.9931 96.1982 13.954C96.1982 14.9149 96.0206 16.3642 94.9995 17.525C94.0576 18.581 92.8715 18.8284 91.9423 18.8284C91.0131 18.8284 89.8301 18.5779 88.8882 17.525C87.8639 16.3674 87.6895 14.9181 87.6895 13.954C87.6895 12.9931 87.8639 11.5437 88.8882 10.3862C89.8301 9.3333 91.0162 9.08276 91.9423 9.08276C92.8715 9.08594 94.0576 9.3333 94.9995 10.3862ZM90.0616 11.5216C89.7508 11.956 89.402 12.6918 89.402 13.9572C89.402 15.2225 89.754 15.9583 90.0616 16.3928C90.6135 17.1444 91.3397 17.3283 91.9454 17.3283C92.5512 17.3283 93.2774 17.1444 93.8292 16.3928C94.14 15.9583 94.4889 15.2225 94.4889 13.9572C94.4889 12.6918 94.1369 11.956 93.8292 11.5216C93.2774 10.7699 92.5512 10.586 91.9454 10.586C91.3397 10.586 90.6135 10.7699 90.0616 11.5216Z" fill="#BCC4CF"/>
<path fill-rule="evenodd" clip-rule="evenodd" d="M118.574 9.28271V15.8031L122.986 9.28271H124.616V18.6605H122.986V12.0989L118.574 18.6605H116.944V9.28271H118.574Z" fill="#BCC4CF"/>
<path fill-rule="evenodd" clip-rule="evenodd" d="M72.5222 9.26367L74.5423 9.26684L70.3625 13.6529L74.8817 18.7049H72.833L68.7419 14.3664V18.7049H67.1055V9.26684H68.7419V13.1423L72.5222 9.26367Z" fill="#BCC4CF"/>
<path fill-rule="evenodd" clip-rule="evenodd" d="M128.421 18.6602H126.464L128.985 15.0544C127.726 14.9053 126.648 13.9095 126.648 12.2287C126.648 11.0457 127.146 9.27295 129.81 9.27295H134.487V18.6634H132.861V15.232H130.726L128.421 18.6602ZM130.514 10.6874C129.886 10.6874 128.332 10.4337 128.332 12.1716C128.332 12.8756 128.586 13.8144 130.571 13.8144H132.864V10.6874H130.514Z" fill="#BCC4CF"/>
<path fill-rule="evenodd" clip-rule="evenodd" d="M104.003 15.86C103.907 16.0756 103.803 16.2532 103.701 16.3928C103.149 17.1444 102.423 17.3283 101.818 17.3283C101.212 17.3283 100.486 17.1444 99.9337 16.3928C99.6229 15.9583 99.2741 15.2225 99.2741 13.9572C99.2741 12.6918 99.6261 11.956 99.9337 11.5216C100.486 10.7699 101.212 10.586 101.818 10.586C102.423 10.586 103.149 10.7699 103.701 11.5216C103.847 11.7277 104.006 12.0068 104.129 12.3746H105.886C105.721 11.7055 105.42 11.0046 104.875 10.3862C103.933 9.3333 102.747 9.08276 101.818 9.08276C100.888 9.08276 99.7054 9.3333 98.7603 10.3862C97.7359 11.5437 97.5615 12.9931 97.5615 13.954C97.5615 14.9149 97.7359 16.3642 98.7603 17.5218C99.7022 18.5779 100.888 18.8284 101.818 18.8284C102.747 18.8284 103.93 18.5779 104.875 17.5218C105.335 17.0017 105.617 16.4245 105.794 15.8536H104.003V15.86Z" fill="#BCC4CF"/>
<path fill-rule="evenodd" clip-rule="evenodd" d="M113.536 15.86C113.44 16.0756 113.336 16.2532 113.234 16.3928C112.682 17.1444 111.956 17.3283 111.35 17.3283C110.745 17.3283 110.018 17.1444 109.467 16.3928C109.156 15.9583 108.807 15.2225 108.807 13.9572C108.807 12.6918 109.159 11.956 109.467 11.5216C110.018 10.7699 110.745 10.586 111.35 10.586C111.956 10.586 112.682 10.7699 113.234 11.5216C113.383 11.7277 113.539 12.0068 113.662 12.3746H115.419C115.254 11.7055 114.953 11.0046 114.408 10.3862C113.466 9.3333 112.28 9.08276 111.35 9.08276C110.421 9.08276 109.238 9.3333 108.296 10.3862C107.272 11.5437 107.098 12.9931 107.098 13.954C107.098 14.9149 107.272 16.3642 108.296 17.5218C109.238 18.5779 110.424 18.8284 111.35 18.8284C112.28 18.8284 113.466 18.5779 114.408 17.5218C114.868 17.0017 115.15 16.4245 115.331 15.8536H113.536V15.86Z" fill="#BCC4CF"/>
<path fill-rule="evenodd" clip-rule="evenodd" d="M30.6894 17.8422H19.3263V19.1932H27.1057C26.8362 19.4406 26.5951 19.6214 26.1416 19.948L26.1385 19.9512C23.373 21.7494 19.7386 22.7579 15.8949 22.7864V14.525H28.9356V13.0788H7.02776C7.05948 12.6792 7.11339 12.2987 7.19585 11.9118C7.22439 11.7722 7.25293 11.6295 7.2783 11.5185C7.3671 11.1411 7.47493 10.7923 7.60495 10.4846L7.80792 10.5512C8.0648 10.6369 8.33437 10.7257 8.61345 10.8145C9.34287 11.0365 10.0342 11.195 10.7319 11.2965L10.9286 11.3219C11.4645 11.4329 12.0798 11.5153 12.7648 11.5756C13.3071 11.6232 13.8494 11.6485 14.4488 11.6739V10.1104C13.9731 10.0977 13.4688 10.066 12.9075 10.0089C12.3081 9.95186 11.7246 9.89477 11.1601 9.7806C11.0205 9.7806 10.8715 9.75206 10.7446 9.72352C9.92957 9.57764 9.23821 9.40321 8.63248 9.1939C8.54368 9.17487 8.45805 9.1495 8.37243 9.12096C8.34388 9.11145 8.31217 9.10193 8.28363 9.09242C8.36291 8.94336 8.45488 8.80382 8.54685 8.65794C8.58174 8.60402 8.61662 8.54694 8.65468 8.48986C9.20333 7.69067 9.92957 6.95491 10.7573 6.35552C11.8039 5.59756 13.0026 5.09649 14.3124 4.87132C14.341 4.87132 14.3727 4.86815 14.4044 4.86498C14.4171 4.86498 14.4329 4.8618 14.4488 4.8618V3.26978L14.4139 3.27929C14.3758 3.29197 14.3346 3.29832 14.2966 3.30466C14.2522 3.311 14.2078 3.31735 14.1634 3.3332C13.0153 3.41566 11.8578 3.5774 10.7288 3.81525C9.92957 3.99602 9.23821 4.19899 8.61345 4.4305C8.16629 4.5637 7.72547 4.72544 7.22756 4.94109C6.84382 5.10917 6.4252 5.31531 5.90193 5.58805C5.1186 6.01301 4.45578 6.43798 3.86908 6.88831C2.93352 7.60821 2.13433 8.42326 1.49372 9.31758C1.02118 9.98992 0.650132 10.7035 0.39325 11.4392C0.130026 12.2321 0 12.9995 0 13.786V13.8146C0 16.3422 1.3732 18.8 3.87225 20.7409C4.01813 20.8424 4.17036 20.9502 4.32258 21.0612C4.46529 21.1627 4.61118 21.2673 4.74755 21.3625C5.02028 21.5337 5.31839 21.705 5.60382 21.8699C5.70213 21.927 5.80044 21.984 5.90193 22.0411C6.26663 22.2346 6.65988 22.409 7.04362 22.5771L7.22756 22.6596C7.63032 22.834 8.05529 22.9989 8.61028 23.1955C9.30798 23.427 10.0215 23.6268 10.7256 23.7886C12.3588 24.1533 14.0682 24.3404 15.7998 24.3404C20.0494 24.3404 24.0263 23.2431 26.9947 21.2515C27.6005 20.8772 28.1237 20.4332 28.6058 20.0083C29.0212 19.6214 30.22 18.4353 30.6386 17.9088L30.6862 17.8486H30.6767L30.6894 17.8422ZM5.74336 7.47184C5.80361 7.43379 5.87021 7.39256 5.93998 7.34499C6.33323 7.10714 6.76137 6.89465 7.17365 6.68852L7.25927 6.64412C7.61447 6.46969 7.96332 6.32698 8.32803 6.1811C8.42951 6.13987 8.53417 6.09864 8.63565 6.05424C8.67053 6.04156 8.70542 6.02887 8.7403 6.01936C8.69273 6.06693 8.64516 6.1145 8.59442 6.16207C8.05529 6.7012 7.5891 7.27205 7.20853 7.85558C7.13876 7.95707 7.07216 8.06489 7.00874 8.16955C6.95165 8.26152 6.89457 8.35983 6.83431 8.44863C6.51083 8.27103 6.20955 8.05855 5.94315 7.82387C5.81947 7.70336 5.73067 7.60821 5.6609 7.52259C5.68944 7.50356 5.71481 7.4877 5.74336 7.47184ZM1.87428 11.9371C2.07408 11.3504 2.37536 10.7669 2.77178 10.2056C3.0794 9.79963 3.4568 9.3271 3.91982 8.88628C4.00544 8.80065 4.09107 8.72137 4.1767 8.64525C4.24964 8.57865 4.32575 8.50888 4.39869 8.43911C4.76023 8.90213 5.26765 9.32076 5.90193 9.68229C5.92095 9.69498 5.94315 9.70766 5.96535 9.72669C6.02878 9.77109 6.10806 9.825 6.18418 9.86623C6.08269 10.1231 5.96852 10.4276 5.88607 10.7384L5.85118 10.8557C5.78141 11.0936 5.71164 11.3441 5.6609 11.5883C5.57527 12.0925 5.49599 12.5904 5.46428 13.0788H1.59837C1.65863 12.6634 1.74743 12.2892 1.87428 11.9371ZM4.84586 18.8602L4.83634 18.8761C4.73803 19.003 4.63655 19.133 4.53189 19.282C4.32258 19.0981 4.10693 18.9078 3.91665 18.7175C2.57833 17.4395 1.79817 16.0282 1.59837 14.5282H5.46428C5.51819 15.3083 5.65773 16.0663 5.8829 16.8401C5.96535 17.1762 6.07952 17.5124 6.21272 17.8074C6.16515 17.8422 6.11441 17.8708 6.06684 17.9025C6.01609 17.9342 5.96218 17.9659 5.90827 18.004H5.87973L5.87021 18.0103C5.46745 18.2704 5.13445 18.5495 4.84586 18.8602ZM8.63565 21.5527C8.15994 21.3815 7.72229 21.1944 7.2561 20.9597L7.06899 20.8646C6.68843 20.6743 6.29518 20.4776 5.9273 20.2557C5.8829 20.2335 5.8385 20.2113 5.79727 20.1764C5.83533 20.132 5.87021 20.0781 5.91144 20.0241L6.00024 19.8941C6.16515 19.7324 6.39349 19.5167 6.72331 19.3074C6.74868 19.2947 6.77722 19.2757 6.80894 19.2567C6.83431 19.2408 6.86285 19.225 6.88822 19.2123C6.94214 19.2916 6.99288 19.374 7.04362 19.4565C7.09753 19.5453 7.15145 19.6341 7.20536 19.7133C7.60495 20.3064 8.07115 20.8677 8.58808 21.3783C8.65151 21.4608 8.7181 21.5337 8.78788 21.6003C8.74348 21.5845 8.68639 21.5654 8.63565 21.5527ZM14.4424 22.7008L14.36 22.6849C14.0968 22.6342 13.8272 22.5803 13.5545 22.5105C13.028 22.39 12.4857 22.1807 11.7943 21.835C11.3916 21.6225 11.0713 21.4259 10.7541 21.1944C9.9264 20.6204 9.20015 19.8814 8.65151 19.06C8.51197 18.8634 8.40731 18.7017 8.309 18.5336C8.36925 18.5082 8.42634 18.486 8.49294 18.4638C8.53734 18.448 8.58174 18.4321 8.63248 18.4163C9.24772 18.2165 9.97397 18.023 10.7383 17.8549C11.9053 17.6266 13.1136 17.487 14.4393 17.43V22.7008H14.4424ZM14.4424 15.8696C13.1105 15.9236 11.8609 16.0631 10.7288 16.2851C10.0089 16.4183 9.29847 16.5895 8.61345 16.7957C8.28997 16.8972 7.94746 17.005 7.6335 17.1477C7.51298 16.8179 7.41784 16.5007 7.31953 16.1678L7.2783 16.0314C7.1673 15.5366 7.08485 15.0419 7.02776 14.525H14.4424V15.8696Z" fill="#BCC4CF"/>
</g>
<defs>
<clipPath id="clip0_4825_1232">
<rect width="134.485" height="24.3403" fill="white"/>
</clipPath>
</defs>
</svg>
